<?xml version="1.0" standalone="no"?>
<!DOCTYPE svg PUBLIC "-//W3C//DTD SVG 20010904//EN"
 "http://www.w3.org/TR/2001/REC-SVG-20010904/DTD/svg10.dtd">
<svg version="1.0" xmlns="http://www.w3.org/2000/svg"
 width="512.000000pt" height="512.000000pt" viewBox="0 0 512.000000 512.000000"
 preserveAspectRatio="xMidYMid meet">
<metadata>
Created by potrace 1.14, written by Peter Selinger 2001-2017
</metadata>
<g transform="translate(0.000000,512.000000) scale(0.100000,-0.100000)"
fill="#000000" stroke="none">
<path d="M1325 4850 c-210 -24 -400 -97 -510 -197 -68 -61 -131 -166 -160
-267 -23 -80 -17 -232 13 -298 40 -89 130 -169 232 -204 79 -27 290 -25 415 5
289 68 459 88 606 72 418 -48 766 -186 1074 -426 161 -125 371 -365 490 -557
26 -43 52 -75 58 -71 6 3 7 41 3 102 -29 411 -215 786 -571 1150 -313 321
-642 523 -1055 650 -126 38 -432 59 -595 41z"/>
<path d="M4392 4066 c-113 -61 -233 -165 -290 -248 -13 -21 -27 -38 -31 -37
-3 0 -20 19 -36 42 -63 87 -223 183 -370 224 -77 20 -235 44 -246 37 -7 -4 18
-36 59 -78 89 -91 141 -158 203 -264 198 -335 247 -719 153 -1196 -14 -70 -23
-130 -21 -132 10 -11 131 83 196 152 222 233 400 651 466 1089 21 145 18 438
-5 442 -8 2 -43 -13 -78 -31z"/>
<path d="M1605 3620 c-116 -13 -274 -49 -382 -85 -147 -49 -265 -125 -389
-249 -85 -85 -108 -115 -142 -186 -25 -50 -48 -119 -58 -167 -15 -77 -15 -89
1 -165 36 -180 116 -287 257 -346 131 -55 245 -58 349 -10 122 56 209 153 321
357 47 86 83 136 144 200 283 299 724 446 1047 351 42 -13 81 -20 85 -16 4 5
-9 21 -28 38 -128 110 -366 211 -610 259 -117 23 -466 35 -595 19z"/>
<path d="M2695 3085 c-330 -54 -610 -259 -703 -515 -61 -166 -66 -404 -12
-556 44 -126 156 -256 268 -311 50 -25 68 -28 152 -28 85 0 101 3 150 28 103
53 157 125 167 221 5 51 -8 117 -58 306 -19 69 -23 112 -24 230 0 126 3 154
23 212 45 129 155 262 290 351 34 23 62 44 62 48 0 24 -200 33 -315 14z"/>
<path d="M4431 2715 c-120 -168 -363 -434 -540 -593 -391 -348 -865 -593
-1373 -708 -43 -10 -78 -21 -78 -26 0 -12 119 -97 165 -118 92 -42 165 -59
350 -81 97 -11 185 -38 185 -57 0 -27 -168 -380 -320 -671 -55 -106 -98 -196
-95 -199 9 -10 149 17 216 42 142 51 231 109 374 239 156 144 239 211 287 237
l47 24 75 -76 c80 -81 229 -207 361 -304 85 -62 243 -164 255 -164 38 0 46
569 11 757 -5 26 -14 80 -21 118 -17 100 -75 331 -116 463 l-35 113 20 27 c78
110 162 355 220 637 28 139 53 317 49 356 l-3 32 -34 -48z"/>
<path d="M3154 2724 c-176 -84 -254 -336 -164 -521 85 -173 288 -204 433 -65
81 79 117 168 117 294 0 140 -46 232 -144 289 -69 39 -166 41 -242 3z"/>
<path d="M766 2211 c-19 -30 -38 -244 -32 -361 8 -190 53 -335 139 -453 l35
-49 -15 -46 c-99 -309 -133 -576 -99 -784 16 -96 73 -241 96 -245 10 -2 44 44
93 125 43 70 107 168 142 217 68 96 188 225 208 225 7 0 64 -52 127 -116 234
-235 382 -336 609 -413 109 -37 261 -64 261 -45 0 3 -28 42 -63 87 -80 105
-154 215 -302 452 -65 105 -127 201 -137 214 -30 39 -23 48 42 54 75 8 198 55
271 104 62 42 249 194 249 202 0 4 -105 4 -233 3 -326 -5 -474 21 -682 118
-211 99 -434 315 -628 610 -81 123 -73 114 -81 101z"/>
<path d="M1410 2207 c-75 -25 -140 -127 -140 -222 0 -113 88 -249 187 -290 45
-19 136 -19 171 -1 46 24 90 79 108 135 41 129 -39 308 -163 363 -53 24 -119
30 -163 15z"/>
</g>
</svg>
